<svg xmlns="http://www.w3.org/2000/svg" xmlns:xlink="http://www.w3.org/1999/xlink" width="500" zoomAndPan="magnify" viewBox="0 0 375 374.999991" height="500" preserveAspectRatio="xMidYMid meet" version="1.0"><defs><clipPath id="511cffae10"><path d="M 69 128 L 306.292969 128 L 306.292969 365.691406 L 69 365.691406 Z M 69 128 " clip-rule="nonzero"/></clipPath><clipPath id="93f648ca17"><path d="M 68.6875 9.441406 L 306 9.441406 L 306 247 L 68.6875 247 Z M 68.6875 9.441406 " clip-rule="nonzero"/></clipPath></defs><g clip-path="url(#511cffae10)"><path fill="#facd3d" d="M 187.527344 246.863281 L 81.347656 246.863281 C 74.304688 246.863281 68.769531 252.960938 69.539062 259.960938 C 72.394531 285.839844 83.75 310.960938 103.589844 330.804688 C 126.773438 353.984375 157.152344 365.574219 187.527344 365.574219 C 217.90625 365.574219 248.292969 353.984375 271.464844 330.804688 C 294.640625 307.621094 306.238281 277.242188 306.238281 246.863281 C 306.238281 216.488281 294.648438 186.101562 271.464844 162.925781 C 248.285156 139.753906 217.90625 128.15625 187.527344 128.15625 Z M 187.527344 246.863281 " fill-opacity="1" fill-rule="nonzero"/></g><g clip-path="url(#93f648ca17)"><path fill="#00abe1" d="M 187.527344 128.148438 L 293.710938 128.148438 C 300.753906 128.148438 306.289062 122.050781 305.515625 115.054688 C 302.664062 89.175781 291.308594 64.054688 271.464844 44.210938 C 248.292969 21.027344 217.914062 9.441406 187.527344 9.441406 C 157.152344 9.441406 126.765625 21.027344 103.589844 44.210938 C 80.410156 67.386719 68.820312 97.773438 68.820312 128.148438 C 68.820312 158.527344 80.410156 188.910156 103.589844 212.085938 C 126.773438 235.269531 157.152344 246.859375 187.527344 246.859375 Z M 187.527344 128.148438 " fill-opacity="1" fill-rule="nonzero"/></g></svg>